<?xml version="1.0" encoding="UTF-8"?>
<svg width="200px" height="60px" viewBox="0 0 200 60" version="1.1" xmlns="http://www.w3.org/2000/svg" xmlns:xlink="http://www.w3.org/1999/xlink">
    <!-- Generator: Sketch 53 (72520) - https://sketchapp.com -->
    <title>Abeer Zone Logo </title>
    <desc>Created with Sketch.</desc>
    <g id="Abeer-Zone-Logo-" stroke="none" stroke-width="1" fill="none" fill-rule="evenodd">
        <g id="Group-18" transform="translate(5.000000, 5.000000)" stroke="#FFFFFF" stroke-linecap="round" stroke-width="3">
            <path d="M22.8766478,49.4791667 L14.5143572,25.2635149 C14.49633,25.2113114 14.4393967,25.1836061 14.3871932,25.2016333 C14.3589446,25.2113883 14.3365396,25.2332664 14.3261151,25.2612748 L5.33672813,49.4140479 C5.32215658,49.4531989 5.28478362,49.4791667 5.24300887,49.4791667 L0.100000001,49.4791667 C0.0447715257,49.4791667 -4.58412227e-14,49.4343951 -4.98212582e-14,49.3791667 L-4.26464419e-14,0.100000001 C-4.26532055e-14,0.0447715257 0.0447715257,2.40230942e-17 0.100000001,1.38777878e-17 L189.9,-1.38777878e-17 C189.955228,-2.40230942e-17 190,0.0447715257 190,0.100000001 L190,49.3791667 C190,49.4343951 189.955228,49.4791667 189.9,49.4791667 L167.559379,49.4791667 C167.50415,49.4791667 167.459379,49.4343951 167.459379,49.3791667 C167.459379,49.359927 167.464929,49.3410958 167.475364,49.3249316 L183.246581,24.8938184 C183.276534,24.847418 183.263201,24.7855213 183.2168,24.7555681 C183.200636,24.7451335 183.181805,24.7395833 183.162565,24.7395833 L169.375799,24.7395833" id="Path-4"></path>
        </g>
        <path d="M31,47.5522461 L31,41.1142578 L34.9023438,41.1142578 L34.8540039,42.059082 L32.190918,42.059082 L32.190918,43.7202148 L34.722168,43.7202148 L34.722168,44.6650391 L32.190918,44.6650391 L32.190918,46.6030273 L34.9506836,46.6030273 L34.9111328,47.5522461 L31,47.5522461 Z M36.5806161,47.5522461 L36.5806161,41.1142578 L37.8462411,41.1142578 C38.0747579,41.4716815 38.5391087,42.1923774 39.2393075,43.2763672 C39.9395063,44.360357 40.3657716,45.0195301 40.5181161,45.2539062 C40.5620616,45.3212894 40.6375003,45.4348137 40.7444345,45.5944824 C40.8513686,45.7541512 40.9268073,45.8676754 40.9707528,45.9350586 C40.9502449,44.9301708 40.9399911,44.4086916 40.9399911,44.3706055 L40.9399911,41.1142578 L42.0254403,41.1142578 L42.0254403,47.5522461 L40.7422372,47.5522461 L37.837452,43.0258789 L37.6265145,42.6787109 C37.6499522,43.4521523 37.6616708,43.9956039 37.6616708,44.309082 L37.6616708,47.5522461 L36.5806161,47.5522461 Z M43.9278338,47.5522461 L43.9278338,41.1142578 L45.1187517,41.1142578 L45.1187517,46.6030273 L47.8125994,46.6030273 L47.7774431,47.5522461 L43.9278338,47.5522461 Z M49.1832546,47.5522461 L49.1832546,41.1142578 L50.3741725,41.1142578 L50.3741725,47.5522461 L49.1832546,47.5522461 Z M55.1901402,47.6445312 C54.20869,47.6445312 53.4418519,47.3486358 52.8896031,46.7568359 C52.3373542,46.1650361 52.0612339,45.3549856 52.0612339,44.3266602 C52.0612339,43.6733366 52.1901389,43.0983912 52.4479527,42.6018066 C52.7057665,42.1052221 53.0851572,41.7177748 53.5861363,41.4394531 C54.0871153,41.1611314 54.6789063,41.0219727 55.3615269,41.0219727 C56.1437574,41.0219727 56.8146491,41.190428 57.3742222,41.5273438 L56.9875035,42.4150391 C56.4542977,42.1279283 55.919635,41.984375 55.3834996,41.984375 C54.7331057,41.984375 54.2218803,42.1953104 53.8498082,42.6171875 C53.477736,43.0390646 53.2917027,43.6132776 53.2917027,44.3398438 C53.2917027,45.0605505 53.4572284,45.630369 53.7882847,46.0493164 C54.1193411,46.4682638 54.6041995,46.6777344 55.2428746,46.6777344 C55.6530329,46.6777344 56.0250994,46.6132819 56.3590855,46.484375 L56.3590855,44.9902344 L55.0099644,44.9902344 L55.0187535,44.0541992 L57.479691,44.0541992 L57.479691,47.1611328 C57.0812515,47.3251961 56.704058,47.4467769 56.3480992,47.5258789 C55.9921404,47.6049809 55.6061579,47.6445312 55.1901402,47.6445312 Z M59.2766157,47.5522461 L59.2766157,41.1142578 L60.4675336,41.1142578 L60.4675336,43.746582 L63.3767133,43.746582 L63.3767133,41.1142578 L64.5676313,41.1142578 L64.5676313,47.5522461 L63.3767133,47.5522461 L63.3767133,44.6870117 L60.4675336,44.6870117 L60.4675336,47.5522461 L59.2766157,47.5522461 Z M67.7180716,47.5522461 L67.7180716,42.0678711 L65.8416068,42.0678711 L65.8416068,41.1142578 L70.7810599,41.1142578 L70.7810599,42.0678711 L68.9133841,42.0678711 L68.9133841,47.5522461 L67.7180716,47.5522461 Z M71.9935119,47.5522461 L71.9935119,41.1142578 L75.8958557,41.1142578 L75.8475158,42.059082 L73.1844299,42.059082 L73.1844299,43.7202148 L75.7156799,43.7202148 L75.7156799,44.6650391 L73.1844299,44.6650391 L73.1844299,46.6030273 L75.9441955,46.6030273 L75.9046447,47.5522461 L71.9935119,47.5522461 Z M77.574128,47.5522461 L77.574128,41.1142578 L78.839753,41.1142578 C79.0682698,41.4716815 79.5326206,42.1923774 80.2328194,43.2763672 C80.9330182,44.360357 81.3592835,45.0195301 81.511628,45.2539062 C81.5555736,45.3212894 81.6310122,45.4348137 81.7379464,45.5944824 C81.8448805,45.7541512 81.9203192,45.8676754 81.9642647,45.9350586 C81.9437568,44.9301708 81.933503,44.4086916 81.933503,44.3706055 L81.933503,41.1142578 L83.0189522,41.1142578 L83.0189522,47.5522461 L81.7357491,47.5522461 L78.830964,43.0258789 L78.6200265,42.6787109 C78.6434641,43.4521523 78.6551827,43.9956039 78.6551827,44.309082 L78.6551827,47.5522461 L77.574128,47.5522461 Z M89.2846766,47.5522461 L89.2846766,44.9990234 L87.0566493,41.1142578 L88.3486415,41.1142578 L89.8823329,43.9003906 L91.4248133,41.1142578 L92.6992274,41.1142578 L90.4799891,44.9770508 L90.4799891,47.5522461 L89.2846766,47.5522461 Z M95.2827732,46.0625 C95.6021107,46.4697286 96.0737857,46.6733398 96.6978123,46.6733398 C97.3218388,46.6733398 97.7927814,46.470461 98.1106541,46.0646973 C98.4285267,45.6589335 98.5874607,45.0854529 98.5874607,44.3442383 C98.5874607,43.5942345 98.4285267,43.0126974 98.1106541,42.5996094 C97.7927814,42.1865214 97.3233036,41.9799805 96.7022068,41.9799805 C96.0781802,41.9799805 95.6057728,42.1872538 95.2849705,42.6018066 C94.9641681,43.0163595 94.8037693,43.5971642 94.8037693,44.3442383 C94.8037693,45.0825232 94.9634357,45.6552714 95.2827732,46.0625 Z M96.6934177,47.6445312 C95.7236863,47.6445312 94.9583131,47.350833 94.3972751,46.7634277 C93.8362372,46.1760225 93.5557224,45.3652395 93.5557224,44.3310547 C93.5557224,43.2910104 93.8369696,42.4794951 94.3994724,41.8964844 C94.9619752,41.3134736 95.7280808,41.0219727 96.6978123,41.0219727 C97.6675437,41.0219727 98.4321845,41.3142061 98.9917576,41.8986816 C99.5513307,42.4831572 99.831113,43.295405 99.831113,44.3354492 C99.831113,45.3637747 99.5498659,46.1723603 98.987363,46.7612305 C98.4248602,47.3501006 97.6602194,47.6445312 96.6934177,47.6445312 Z M103.992296,47.6445312 C103.148541,47.6445312 102.508411,47.4343283 102.071885,47.013916 C101.63536,46.5935038 101.4171,46.0009804 101.4171,45.2363281 L101.4171,41.1142578 L102.612413,41.1142578 L102.612413,45.1352539 C102.612413,45.6713894 102.721542,46.0624988 102.939805,46.3085938 C103.158068,46.5546887 103.516219,46.6777344 104.014268,46.6777344 C104.503528,46.6777344 104.858017,46.5539563 105.077745,46.3063965 C105.297472,46.0588367 105.407335,45.6669949 105.407335,45.1308594 L105.407335,41.1142578 L106.598253,41.1142578 L106.598253,45.2451172 C106.598253,46.00391 106.375599,46.5935038 105.930284,47.013916 C105.484969,47.4343283 104.838979,47.6445312 103.992296,47.6445312 Z M108.41715,47.5522461 L108.41715,41.0966797 L110.80338,41.0966797 C111.128577,41.0966797 111.410557,41.111328 111.649328,41.140625 C111.888098,41.169922 112.115147,41.2233883 112.33048,41.3010254 C112.545813,41.3786625 112.720128,41.4833978 112.853429,41.6152344 C112.986731,41.747071 113.092198,41.9191884 113.169835,42.1315918 C113.247473,42.3439952 113.286291,42.5952134 113.286291,42.8852539 C113.286291,43.7407269 112.898111,44.3032213 112.12174,44.5727539 C112.279944,44.7514657 112.476231,45.0825171 112.710607,45.565918 L113.668615,47.5522461 L112.367834,47.5522461 L111.616369,45.8691406 C111.332188,45.265622 111.156408,44.9082037 111.089025,44.796875 C111.03922,44.7939453 110.873694,44.7924805 110.592443,44.7924805 L109.594884,44.7836914 L109.594884,47.5522461 L108.41715,47.5522461 Z M110.908849,43.9311523 C111.365883,43.9311523 111.694004,43.8498543 111.893224,43.6872559 C112.092444,43.5246574 112.192052,43.2631854 112.192052,42.902832 C112.192052,42.5864242 112.090979,42.3535164 111.88883,42.2041016 C111.68668,42.0546868 111.377601,41.9799805 110.961584,41.9799805 L109.594884,41.9799805 L109.594884,43.9267578 C109.63883,43.9267578 109.857089,43.9274902 110.249669,43.9289551 C110.64225,43.9304199 110.861974,43.9311523 110.908849,43.9311523 Z M119.231214,47.5522461 L119.231214,42.0678711 L117.354749,42.0678711 L117.354749,41.1142578 L122.294202,41.1142578 L122.294202,42.0678711 L120.426527,42.0678711 L120.426527,47.5522461 L119.231214,47.5522461 Z M123.506654,47.5522461 L123.506654,41.1142578 L124.697572,41.1142578 L124.697572,43.746582 L127.606752,43.746582 L127.606752,41.1142578 L128.79767,41.1142578 L128.79767,47.5522461 L127.606752,47.5522461 L127.606752,44.6870117 L124.697572,44.6870117 L124.697572,47.5522461 L123.506654,47.5522461 Z M132.172232,46.0625 C132.491569,46.4697286 132.963244,46.6733398 133.587271,46.6733398 C134.211297,46.6733398 134.68224,46.470461 135.000112,46.0646973 C135.317985,45.6589335 135.476919,45.0854529 135.476919,44.3442383 C135.476919,43.5942345 135.317985,43.0126974 135.000112,42.5996094 C134.68224,42.1865214 134.212762,41.9799805 133.591665,41.9799805 C132.967639,41.9799805 132.495231,42.1872538 132.174429,42.6018066 C131.853626,43.0163595 131.693228,43.5971642 131.693228,44.3442383 C131.693228,45.0825232 131.852894,45.6552714 132.172232,46.0625 Z M133.582876,47.6445312 C132.613145,47.6445312 131.847771,47.350833 131.286733,46.7634277 C130.725696,46.1760225 130.445181,45.3652395 130.445181,44.3310547 C130.445181,43.2910104 130.726428,42.4794951 131.288931,41.8964844 C131.851434,41.3134736 132.617539,41.0219727 133.587271,41.0219727 C134.557002,41.0219727 135.321643,41.3142061 135.881216,41.8986816 C136.440789,42.4831572 136.720571,43.295405 136.720571,44.3354492 C136.720571,45.3637747 136.439324,46.1723603 135.876821,46.7612305 C135.314319,47.3501006 134.549678,47.6445312 133.582876,47.6445312 Z M140.881754,47.6445312 C140.038,47.6445312 139.397869,47.4343283 138.961344,47.013916 C138.524818,46.5935038 138.306559,46.0009804 138.306559,45.2363281 L138.306559,41.1142578 L139.501871,41.1142578 L139.501871,45.1352539 C139.501871,45.6713894 139.611001,46.0624988 139.829264,46.3085938 C140.047526,46.5546887 140.405677,46.6777344 140.903727,46.6777344 C141.392987,46.6777344 141.747475,46.5539563 141.967203,46.3063965 C142.186931,46.0588367 142.296793,45.6669949 142.296793,45.1308594 L142.296793,41.1142578 L143.487711,41.1142578 L143.487711,45.2451172 C143.487711,46.00391 143.265057,46.5935038 142.819742,47.013916 C142.374427,47.4343283 141.728438,47.6445312 140.881754,47.6445312 Z M148.211393,47.6445312 C147.229943,47.6445312 146.463105,47.3486358 145.910856,46.7568359 C145.358607,46.1650361 145.082487,45.3549856 145.082487,44.3266602 C145.082487,43.6733366 145.211392,43.0983912 145.469206,42.6018066 C145.72702,42.1052221 146.10641,41.7177748 146.607389,41.4394531 C147.108369,41.1611314 147.70016,41.0219727 148.38278,41.0219727 C149.165011,41.0219727 149.835902,41.190428 150.395475,41.5273438 L150.008757,42.4150391 C149.475551,42.1279283 148.940888,41.984375 148.404753,41.984375 C147.754359,41.984375 147.243134,42.1953104 146.871061,42.6171875 C146.498989,43.0390646 146.312956,43.6132776 146.312956,44.3398438 C146.312956,45.0605505 146.478482,45.630369 146.809538,46.0493164 C147.140594,46.4682638 147.625453,46.6777344 148.264128,46.6777344 C148.674286,46.6777344 149.046353,46.6132819 149.380339,46.484375 L149.380339,44.9902344 L148.031218,44.9902344 L148.040007,44.0541992 L150.500944,44.0541992 L150.500944,47.1611328 C150.102505,47.3251961 149.725311,47.4467769 149.369352,47.5258789 C149.013394,47.6049809 148.627411,47.6445312 148.211393,47.6445312 Z M152.297869,47.5522461 L152.297869,41.1142578 L153.488787,41.1142578 L153.488787,43.746582 L156.397967,43.746582 L156.397967,41.1142578 L157.588885,41.1142578 L157.588885,47.5522461 L156.397967,47.5522461 L156.397967,44.6870117 L153.488787,44.6870117 L153.488787,47.5522461 L152.297869,47.5522461 Z M160.739325,47.5522461 L160.739325,42.0678711 L158.86286,42.0678711 L158.86286,41.1142578 L163.802313,41.1142578 L163.802313,42.0678711 L161.934637,42.0678711 L161.934637,47.5522461 L160.739325,47.5522461 Z M166.882441,47.6401367 C166.10607,47.6401367 165.410276,47.4614276 164.795039,47.1040039 L165.085078,46.1591797 C165.36047,46.3115242 165.660027,46.4345698 165.983759,46.5283203 C166.307491,46.6220708 166.623162,46.6689453 166.930781,46.6689453 C167.308712,46.6689453 167.594354,46.5876473 167.787714,46.4250488 C167.981075,46.2624504 168.077753,46.0288101 168.077753,45.7241211 C168.077753,45.3198222 167.808225,45.0400398 167.26916,44.8847656 C167.231074,44.8730468 167.124141,44.841553 166.948359,44.7902832 C166.772577,44.7390134 166.607783,44.6892092 166.453974,44.6408691 C166.300165,44.5925291 166.18957,44.5551759 166.122187,44.5288086 C165.257925,44.2241196 164.8258,43.6557659 164.8258,42.8237305 C164.8258,42.2407197 165.033074,41.7910172 165.447626,41.4746094 C165.862179,41.1582015 166.412223,41 167.097773,41 C167.874144,41 168.543571,41.1596664 169.106074,41.4790039 L168.745722,42.3491211 C168.171501,42.0913073 167.638303,41.9624023 167.146113,41.9624023 C166.791619,41.9624023 166.524288,42.0246576 166.344111,42.1491699 C166.163934,42.2736823 166.067988,42.4809556 166.056269,42.7709961 C166.056269,43.1284198 166.233513,43.3613276 166.588007,43.4697266 C166.65832,43.4960939 166.83117,43.5532222 167.106562,43.6411133 C167.381954,43.7290043 167.560663,43.7861327 167.642695,43.8125 C168.231565,44.0058603 168.652703,44.2460923 168.906123,44.5332031 C169.159542,44.8203139 169.28625,45.2202123 169.28625,45.7329102 C169.28625,46.3452179 169.069455,46.8161605 168.635859,47.145752 C168.202263,47.4753434 167.617796,47.6401367 166.882441,47.6401367 Z" id="ENLIGHTENYOURTHOUGHTS" fill="#FFFFFF" fill-rule="nonzero"></path>
        <path d="M32,38.8235 L169,38.8235" id="Line" stroke="#FFFFFF" stroke-width="0.5" stroke-linecap="square"></path>
        <path d="M41.72,28.69 C41.4679987,28.6719999 40.6940065,28.663 39.398,28.663 C38.1019935,28.663 37.3460011,28.6989996 37.13,28.771 C36.1759952,31.9030157 35.6360006,34.1619931 35.51,35.548 C35.51,35.5660001 35.2895022,35.575 34.8485,35.575 C34.4074978,35.575 33.9530023,35.5480003 33.485,35.494 C32.494995,35.3499993 32,35.2240005 32,35.116 C32,34.3959964 32.6389936,32.2990174 33.917,28.825 C33.6829988,28.626999 33.4130015,28.2175031 33.107,27.5965 C32.8009985,26.9754969 32.648,26.4580021 32.648,26.044 C32.648,26.0259999 33.3949925,25.9900003 34.889,25.936 C36.3650074,21.6519786 37.201999,19.3930012 37.4,19.159 C37.4720004,19.1049997 37.7959971,19.0195006 38.372,18.9025 C38.9480029,18.7854994 39.3169992,18.727 39.479,18.727 L39.425,18.376 C39.3889998,18.1239987 39.3485002,17.8495015 39.3035,17.5525 C39.2584998,17.2554985 39.236,17.0620005 39.236,16.972 C39.236,16.9179997 39.3889985,16.8100008 39.695,16.648 C40.5770044,16.2159978 41.4859953,16 42.422,16 C42.6020009,17.0620053 42.8404985,18.4164918 43.1375,20.0635 C43.4345015,21.7105082 44.0149957,24.2259831 44.879,27.61 C45.7430043,30.9940169 46.570996,33.3519933 47.363,34.684 L47.552,35.008 C47.552,35.0980005 47.3810017,35.2509989 47.039,35.467 C46.6969983,35.6830011 46.2470028,35.889999 45.689,36.088 C45.1309972,36.286001 44.6180023,36.385 44.15,36.385 C43.9879992,36.385 43.5965031,35.3635102 42.9755,33.3205 C42.3544969,31.2774898 41.9360011,29.7340052 41.72,28.69 Z M41.072,25.909 C40.4599969,23.316987 40.1270003,21.8680015 40.073,21.562 C40.0189997,21.2559985 39.9740002,21.103 39.938,21.103 C39.9019998,21.103 39.8570003,21.1389996 39.803,21.211 C39.6409992,21.5170015 39.3395022,22.2549942 38.8985,23.425 C38.4574978,24.5950059 38.1740006,25.4049978 38.048,25.855 C40.04601,25.855 41.0539999,25.8729998 41.072,25.909 Z M52.034,32.902 C53.240006,32.902 54.3829946,32.5510035 55.463,31.849 C56.5430054,31.1469965 57.083,30.3190048 57.083,29.365 C57.083,28.6809966 56.8130027,28.1140023 56.273,27.664 C55.3369953,26.9079962 54.0320084,26.53 52.358,26.53 C51.9439979,26.53 51.7235001,26.5389999 51.6965,26.557 C51.6694999,26.5750001 51.656,27.4119917 51.656,29.068 C51.656,30.7240083 51.7369992,31.9929956 51.899,32.875 C51.9350002,32.8930001 51.9799997,32.902 52.034,32.902 Z M54.14,23.263 C54.6080023,23.064999 55.0084983,22.7725019 55.3415,22.3855 C55.6745017,21.9984981 55.841,21.5935021 55.841,21.1705 C55.841,20.7474979 55.7150013,20.4100013 55.463,20.158 C55.2109987,19.9059987 54.8960019,19.7170006 54.518,19.591 C54.1399981,19.4649994 53.7755018,19.3750003 53.4245,19.321 C53.0734982,19.2669997 52.7360016,19.24 52.412,19.24 C52.0879984,19.24 51.9125001,19.2534999 51.8855,19.2805 C51.8584999,19.3075001 51.8225002,20.0454928 51.7775,21.4945 C51.7324998,22.9435072 51.71,23.7129996 51.71,23.803 C51.7280001,23.8210001 51.8224991,23.83 51.9935,23.83 C52.1645009,23.83 52.447998,23.7805005 52.844,23.6815 C53.240002,23.5824995 53.6719977,23.4430009 54.14,23.263 Z M48.281,30.958 L48.416,20.644 C48.416,19.9239964 48.3980002,19.5460002 48.362,19.51 C48.163999,19.311999 47.9030016,18.8755034 47.579,18.2005 C47.2549984,17.5254966 47.093,17.089001 47.093,16.891 L47.12,16.81 C47.2280005,16.7199996 47.7994948,16.6390004 48.8345,16.567 C49.8695052,16.4949996 50.8954949,16.459 51.9125,16.459 C52.9295051,16.459 53.8609958,16.5219994 54.707,16.648 C55.5530042,16.7740006 56.376496,16.9719987 57.1775,17.242 C57.978504,17.5120014 58.6219976,17.9124973 59.108,18.4435 C59.5940024,18.9745027 59.837,19.5684967 59.837,20.2255 C59.837,20.8825033 59.6975014,21.4764973 59.4185,22.0075 C59.1394986,22.5385027 58.7930021,22.9839982 58.379,23.344 C57.7489968,23.8840027 57.137003,24.2979986 56.543,24.586 C56.5069998,24.6220002 56.489,24.6489999 56.489,24.667 C56.5070001,24.6850001 56.6374988,24.7299996 56.8805,24.802 C57.1235012,24.8740004 57.3574989,24.9594995 57.5825,25.0585 C57.8075011,25.1575005 58.0819984,25.2879992 58.406,25.45 C58.7300016,25.6120008 59.0269986,25.8054989 59.297,26.0305 C59.5670013,26.2555011 59.8189988,26.5119986 60.053,26.8 C60.5750026,27.4120031 60.836,28.2444947 60.836,29.2975 C60.836,30.3505053 60.5120032,31.3359954 59.864,32.254 C59.2159968,33.1720046 58.3520054,33.8919974 57.272,34.414 C55.1119892,35.4580052 52.6550138,35.98 49.901,35.98 L48.524,35.899 C48.4699997,35.8269996 48.4160003,35.1745062 48.362,33.9415 C48.3079997,32.7084938 48.281,31.7140038 48.281,30.958 Z M64.157,24.181 L64.184,21.265 C64.184,20.4909961 64.1660002,20.0680004 64.13,19.996 C63.931999,19.797999 63.6755016,19.3210038 63.3605,18.565 C63.0454984,17.8089962 62.888,17.3230011 62.888,17.107 C63.086001,16.908999 66.2449694,16.81 72.365,16.81 C73.8770076,16.81 74.633,16.8459996 74.633,16.918 C74.633,17.2960019 74.5475009,17.7099978 74.3765,18.16 C74.2054991,18.6100023 74.0255009,18.9699987 73.8365,19.24 C73.6474991,19.5100014 73.5125004,19.6315001 73.4315,19.6045 C73.3504996,19.5774999 72.9815033,19.564 72.3245,19.564 C71.6674967,19.564 70.7540058,19.6044996 69.584,19.6855 C68.4139941,19.7665004 67.7750005,19.8609995 67.667,19.969 C67.5589995,20.0770005 67.505,21.0669906 67.505,22.939 L67.532,24.073 C68.2520036,24.0549999 69.313993,24.046 70.718,24.046 C72.122007,24.046 72.824,24.0729997 72.824,24.127 C72.824,24.7750032 72.6080022,25.5129959 72.176,26.341 C72.0139992,26.6290014 71.9150002,26.7640001 71.879,26.746 C71.4109977,26.746 70.6100057,26.7864996 69.476,26.8675 C68.3419943,26.9485004 67.6850009,27.0429995 67.505,27.151 C67.4869999,27.1690001 67.478,27.9249925 67.478,29.419 C67.478,30.9130075 67.5229995,31.7049996 67.613,31.795 C67.9010014,32.0830014 69.448986,32.227 72.257,32.227 C73.3910057,32.227 74.155998,32.1955003 74.552,32.1325 C74.948002,32.0694997 75.146,32.0469999 75.146,32.065 C75.146,32.4970022 75.0020014,33.009997 74.714,33.604 C74.4259986,34.198003 74.1200016,34.6479985 73.796,34.954 C73.6159991,35.1340009 72.0005153,35.224 68.9495,35.224 C65.8984847,35.224 64.3190005,35.1520007 64.211,35.008 C64.1029995,34.9179996 64.049,34.0495082 64.049,32.4025 C64.049,30.7554918 64.0669998,29.0140092 64.103,27.178 C63.7789984,26.8899986 63.4685015,26.4400031 63.1715,25.828 C62.8744985,25.2159969 62.726,24.6940022 62.726,24.262 C62.726,24.2439999 63.2029952,24.2170002 64.157,24.181 Z M78.467,24.181 L78.494,21.265 C78.494,20.4909961 78.4760002,20.0680004 78.44,19.996 C78.241999,19.797999 77.9855016,19.3210038 77.6705,18.565 C77.3554984,17.8089962 77.198,17.3230011 77.198,17.107 C77.396001,16.908999 80.5549694,16.81 86.675,16.81 C88.1870076,16.81 88.943,16.8459996 88.943,16.918 C88.943,17.2960019 88.8575009,17.7099978 88.6865,18.16 C88.5154991,18.6100023 88.3355009,18.9699987 88.1465,19.24 C87.9574991,19.5100014 87.8225004,19.6315001 87.7415,19.6045 C87.6604996,19.5774999 87.2915033,19.564 86.6345,19.564 C85.9774967,19.564 85.0640058,19.6044996 83.894,19.6855 C82.7239941,19.7665004 82.0850005,19.8609995 81.977,19.969 C81.8689995,20.0770005 81.815,21.0669906 81.815,22.939 L81.842,24.073 C82.5620036,24.0549999 83.623993,24.046 85.028,24.046 C86.432007,24.046 87.134,24.0729997 87.134,24.127 C87.134,24.7750032 86.9180022,25.5129959 86.486,26.341 C86.3239992,26.6290014 86.2250002,26.7640001 86.189,26.746 C85.7209977,26.746 84.9200057,26.7864996 83.786,26.8675 C82.6519943,26.9485004 81.9950009,27.0429995 81.815,27.151 C81.7969999,27.1690001 81.788,27.9249925 81.788,29.419 C81.788,30.9130075 81.8329995,31.7049996 81.923,31.795 C82.2110014,32.0830014 83.758986,32.227 86.567,32.227 C87.7010057,32.227 88.465998,32.1955003 88.862,32.1325 C89.258002,32.0694997 89.456,32.0469999 89.456,32.065 C89.456,32.4970022 89.3120014,33.009997 89.024,33.604 C88.7359986,34.198003 88.4300016,34.6479985 88.106,34.954 C87.9259991,35.1340009 86.3105153,35.224 83.2595,35.224 C80.2084847,35.224 78.6290005,35.1520007 78.521,35.008 C78.4129995,34.9179996 78.359,34.0495082 78.359,32.4025 C78.359,30.7554918 78.3769998,29.0140092 78.413,27.178 C78.0889984,26.8899986 77.7785015,26.4400031 77.4815,25.828 C77.1844985,25.2159969 77.036,24.6940022 77.036,24.262 C77.036,24.2439999 77.5129952,24.2170002 78.467,24.181 Z M95.612,25.585 C97.7360106,25.386999 99.297495,24.887504 100.2965,24.0865 C101.295505,23.285496 101.795,22.4935039 101.795,21.7105 C101.795,20.9274961 101.408004,20.3515018 100.634,19.9825 C99.8599961,19.6134982 98.8790059,19.429 97.691,19.429 C97.0609968,19.429 96.4220032,19.4829995 95.774,19.591 C95.6659995,20.3650039 95.612,22.3629839 95.612,25.585 Z M95.909,34.9 C95.710999,35.098001 95.315003,35.2554994 94.721,35.3725 C94.126997,35.4895006 93.632002,35.548 93.236,35.548 C92.839998,35.548 92.4980014,35.4940005 92.21,35.386 L92.372,19.807 C92.1379988,19.5189986 91.9085011,19.0420033 91.6835,18.376 C91.4584989,17.7099967 91.346,17.3005008 91.346,17.1475 C91.346,16.9944992 91.3639998,16.8955002 91.4,16.8505 C91.4360002,16.8054998 92.0074945,16.7515003 93.1145,16.6885 C94.2215055,16.6254997 95.3419943,16.594 96.476,16.594 C97.6100057,16.594 98.6179956,16.6569994 99.5,16.783 C100.382004,16.9090006 101.299995,17.1294984 102.254,17.4445 C103.208005,17.7595016 103.963997,18.2589966 104.522,18.943 C105.080003,19.6270034 105.359,20.5044946 105.359,21.5755 C105.359,22.6465054 104.981004,23.6409954 104.225,24.559 C103.468996,25.4770046 102.443006,26.2509969 101.147,26.881 C101.147,27.1690014 101.713994,28.4604885 102.848,30.7555 C103.982006,33.0505115 104.881997,34.5309967 105.548,35.197 C105.566,35.2150001 105.575,35.2464998 105.575,35.2915 C105.575,35.3365002 105.431001,35.4219994 105.143,35.548 C104.350996,35.9260019 103.496005,36.115 102.578,36.115 L101.903,36.061 C101.506998,35.664998 100.818505,34.3510112 99.8375,32.119 C98.8564951,29.8869888 98.3120005,28.5190025 98.204,28.015 C97.9879989,28.1410006 97.1330075,28.3299987 95.639,28.582 C95.6750002,32.2000181 95.7649993,34.305997 95.909,34.9 Z M120.803,29.365 C120.803,30.1750041 120.623002,31.3134927 120.263,32.7805 C119.902998,34.2475073 119.642001,35.0529993 119.48,35.197 C119.426,35.2510003 119.300001,35.278 119.102,35.278 C118.705998,35.278 118.085004,35.1880009 117.239,35.008 L116.834,34.9 C116.689999,34.8819999 116.321003,34.873 115.727,34.873 L107.276,35.116 C107.095999,35.116 106.902501,34.8640025 106.6955,34.36 C106.488499,33.8559975 106.385,33.4510015 106.385,33.145 C106.385,32.8389985 106.394,32.6500004 106.412,32.578 C106.700001,31.9659969 107.595492,30.6430102 109.0985,28.609 C110.601508,26.5749898 112.018993,24.662509 113.351,22.8715 C114.683007,21.080491 115.349,20.086001 115.349,19.888 C115.349,19.7799995 114.678507,19.726 113.3375,19.726 C111.996493,19.726 111.056003,19.8609987 110.516,20.131 C110.263999,20.2210005 109.778004,20.8959937 109.058,22.156 L108.707,22.75 C108.454999,22.75 108.099502,22.6150014 107.6405,22.345 C107.181498,22.0749987 106.952,21.8680007 106.952,21.724 C106.952,21.2919978 107.046499,20.6440043 107.2355,19.78 C107.424501,18.9159957 107.631499,18.1420034 107.8565,17.458 C108.081501,16.7739966 108.23,16.432 108.302,16.432 C108.806003,16.432 109.318997,16.5444989 109.841,16.7695 C110.363003,16.9945011 110.642,17.107 110.678,17.107 C112.298008,16.8729988 114.11149,16.756 116.1185,16.756 C118.12551,16.756 119.290998,16.8099995 119.615,16.918 C119.759001,17.0440006 119.925499,17.3229978 120.1145,17.755 C120.303501,18.1870022 120.398,18.6729973 120.398,19.213 C120.398,19.2670003 120.326001,19.3659993 120.182,19.51 C119.065994,20.7700063 117.342512,23.0469835 115.0115,26.341 C112.680488,29.6350165 111.515,31.479998 111.515,31.876 C111.515,32.0020006 112.266492,32.065 113.7695,32.065 C115.272508,32.065 116.257998,31.9210014 116.726,31.633 C117.014001,31.3809987 117.409997,30.8680039 117.914,30.094 C118.418003,29.3199961 118.750999,28.6990023 118.913,28.231 C118.913,28.1949998 118.989499,28.177 119.1425,28.177 C119.295501,28.177 119.610498,28.3209986 120.0875,28.609 C120.564502,28.8970014 120.803,29.1489989 120.803,29.365 Z M129.767,35.548 C127.084987,35.548 125.100506,34.7740077 123.8135,33.226 C122.526494,31.6779923 121.883,29.7340117 121.883,27.394 C121.883,26.2599943 122.017999,25.198005 122.288,24.208 C122.558001,23.2179951 122.809999,22.5160021 123.044,22.102 C123.278001,21.6879979 123.466999,21.4405004 123.611,21.3595 C123.755001,21.2784996 124.321995,21.238 125.312,21.238 L125.825,21.238 C125.825,20.3379955 126.000498,19.5550033 126.3515,18.889 C126.702502,18.2229967 127.156997,17.7280016 127.715,17.404 C128.759005,16.809997 129.748995,16.513 130.685,16.513 C135.689025,16.513 138.191,19.6629685 138.191,25.963 C138.191,27.9250098 137.858003,29.6709924 137.192,31.201 C136.813998,32.0650043 136.319003,32.8074969 135.707,33.4285 C135.094997,34.0495031 134.280505,34.557998 133.2635,34.954 C132.246495,35.350002 131.081007,35.548 129.767,35.548 Z M134.708,25.747 C134.708,21.5169789 133.448013,19.402 130.928,19.402 C130.207996,19.402 129.654502,19.6089979 129.2675,20.023 C128.880498,20.4370021 128.687,20.9634968 128.687,21.6025 C128.687,22.2415032 128.889498,22.9929957 129.2945,23.857 C129.699502,24.7210043 130.108998,25.4049975 130.523,25.909 L131.117,26.665 C131.117,26.8810011 130.784003,27.0834991 130.118,27.2725 C129.451997,27.4615009 128.921002,27.556 128.525,27.556 C128.435,27.556 128.250501,27.3850017 127.9715,27.043 C127.692499,26.7009983 127.368502,26.1745036 126.9995,25.4635 C126.630498,24.7524964 126.365001,24.001004 126.203,23.209 C125.932999,23.4790014 125.717001,24.0279959 125.555,24.856 C125.392999,25.6840041 125.312,26.4849961 125.312,27.259 C125.312,28.7710076 125.734996,30.0624946 126.581,31.1335 C127.427004,32.2045054 128.497994,32.74 129.794,32.74 C133.070016,32.74 134.708,30.4090233 134.708,25.747 Z M141.701,35.548 C141.340998,35.548 141.017001,35.4940005 140.729,35.386 L140.729,34.576 C140.729,31.8219862 140.818999,27.8260262 140.999,22.588 L141.107,19.969 C140.872999,19.6629985 140.643501,19.1815033 140.4185,18.5245 C140.193499,17.8674967 140.081,17.4625008 140.081,17.3095 C140.081,17.1564992 140.099,17.0620002 140.135,17.026 C140.171,16.9899998 140.625496,16.9405003 141.4985,16.8775 C142.371504,16.8144997 143.271495,16.783 144.1985,16.783 C145.125505,16.783 145.642999,16.8279996 145.751,16.918 C148.937016,24.0460356 150.5615,27.6819993 150.6245,27.826 C150.6875,27.9700007 150.737,28.042 150.773,28.042 L150.881,27.853 L150.881,27.097 C150.881,25.5669924 150.8315,23.6590114 150.7325,21.373 C150.6335,19.0869886 150.530001,17.6650028 150.422,17.107 C150.674001,16.8729988 151.137497,16.6705009 151.8125,16.4995 C152.487503,16.3284991 153.099497,16.243 153.6485,16.243 C154.197503,16.243 154.472,16.2879996 154.472,16.378 C154.472,16.7380018 154.409001,17.1609976 154.283,17.647 C154.156999,18.1330024 154.094,18.3849999 154.094,18.403 C153.967999,19.2130041 153.905,20.4774914 153.905,22.1965 C153.905,23.9155086 153.9095,25.1529962 153.9185,25.909 C153.9275,26.6650038 153.9365,27.3894965 153.9455,28.0825 C153.9545,28.7755035 153.968,29.4594966 153.986,30.1345 C154.004,30.8095034 154.013,31.4259972 154.013,31.984 C154.049,33.1720059 154.067,33.9999977 154.067,34.468 L154.094,34.846 C154.094,34.9000003 153.977001,34.9719996 153.743,35.062 C153.040996,35.3500014 152.096006,35.494 150.908,35.494 L149.909,35.386 C149.188996,33.3519898 148.136007,30.7870155 146.75,27.691 C145.363993,24.5949845 144.590001,22.9255012 144.428,22.6825 C144.265999,22.4394988 144.167,22.318 144.131,22.318 L144.05,22.507 C143.978,23.0110025 143.942,24.0954917 143.942,25.7605 C143.942,27.4255083 143.9825,29.2389902 144.0635,31.201 C144.1445,33.1630098 144.238999,34.3959975 144.347,34.9 C143.860998,35.3320022 142.979006,35.548 141.701,35.548 Z M158.063,24.181 L158.09,21.265 C158.09,20.4909961 158.072,20.0680004 158.036,19.996 C157.837999,19.797999 157.581502,19.3210038 157.2665,18.565 C156.951498,17.8089962 156.794,17.3230011 156.794,17.107 C156.992001,16.908999 160.150969,16.81 166.271,16.81 C167.783008,16.81 168.539,16.8459996 168.539,16.918 C168.539,17.2960019 168.453501,17.7099978 168.2825,18.16 C168.111499,18.6100023 167.931501,18.9699987 167.7425,19.24 C167.553499,19.5100014 167.4185,19.6315001 167.3375,19.6045 C167.2565,19.5774999 166.887503,19.564 166.2305,19.564 C165.573497,19.564 164.660006,19.6044996 163.49,19.6855 C162.319994,19.7665004 161.681001,19.8609995 161.573,19.969 C161.464999,20.0770005 161.411,21.0669906 161.411,22.939 L161.438,24.073 C162.158004,24.0549999 163.219993,24.046 164.624,24.046 C166.028007,24.046 166.73,24.0729997 166.73,24.127 C166.73,24.7750032 166.514002,25.5129959 166.082,26.341 C165.919999,26.6290014 165.821,26.7640001 165.785,26.746 C165.316998,26.746 164.516006,26.7864996 163.382,26.8675 C162.247994,26.9485004 161.591001,27.0429995 161.411,27.151 C161.393,27.1690001 161.384,27.9249925 161.384,29.419 C161.384,30.9130075 161.429,31.7049996 161.519,31.795 C161.807001,32.0830014 163.354986,32.227 166.163,32.227 C167.297006,32.227 168.061998,32.1955003 168.458,32.1325 C168.854002,32.0694997 169.052,32.0469999 169.052,32.065 C169.052,32.4970022 168.908001,33.009997 168.62,33.604 C168.331999,34.198003 168.026002,34.6479985 167.702,34.954 C167.521999,35.1340009 165.906515,35.224 162.8555,35.224 C159.804485,35.224 158.225001,35.1520007 158.117,35.008 C158.008999,34.9179996 157.955,34.0495082 157.955,32.4025 C157.955,30.7554918 157.973,29.0140092 158.009,27.178 C157.684998,26.8899986 157.374501,26.4400031 157.0775,25.828 C156.780499,25.2159969 156.632,24.6940022 156.632,24.262 C156.632,24.2439999 157.108995,24.2170002 158.063,24.181 Z" id="ABEERZONE" fill="#FFFFFF" fill-rule="nonzero"></path>
    </g>
</svg>